<?xml version="1.0" encoding="UTF-8"?><svg id="b" xmlns="http://www.w3.org/2000/svg" viewBox="0 0 619.43 438.09"><g id="c"><g><polygon points="458.6 370.52 458.55 370.52 458.58 370.49 458.6 370.52"/><path d="m182.95,368.69c.9-.32,1.8-.66,2.68-1.05-.88.39-1.77.74-2.68,1.05Z"/><path d="m306.42,106.32h0s-.04.01-.04.01c.01,0,.03,0,.04-.01Zm-9.22-31.05l.03.05h-.03v-.05Zm16.53,257.87v-.02s.04-.06.04-.06l.02.03-.06.05Zm41.35,20.35l-.04-.06h.01l.04.06h-.01Zm28.8,12.56h0s-.02-.03-.02-.03h.04l.02.03h-.04Zm20.92,54.74h-.03s-.02-.01-.03-.01c-3.66-.63-6.81-2.61-8.78-5.59v-.03c2.02,3.03,5.15,4.98,8.84,5.59.02,0,.04.01.06.01l-.06.03Zm8.36-50.27l-.2-.03h.2l.2.03h-.2Zm45.39,0l.03-.03h.01l.02.03h-.06Zm86.06-11.36l.02.03h-.05l-.02-.03h.05Zm-10.06-15.45s0-.03.01-.05l.02.03.03.04s-.01.03-.02.05v.03l-.05-.08s0,0,.01-.02Zm-8.64,15.65h.09s-.04.05-.06.07h-.1l.07-.07Zm-1.5,0l.05.07h-.02l-.05-.07h.02Zm-11.33-257.64h-.03l.03-.03h.03l-.03.03Zm16-17.06h-.03l.03-.04h.04l-.04.04Zm.58-50.51l-31.36,33.45-16,17.06-15.98,17.03-.03.03-51.18,54.57c-10.69,11.39-12.6,27.95-4.61,40.23l90.5,139.54s-.04.04-.1.09c-.02,0-.04.03-.07.05-.07.05-.14.11-.19.14-.07.05-.12.09-.12.09h-136.33l-.02-.03h-7.28l-17.6-26.59s-.05-.02-.08-.03l-.04-.06-.06-.09-36.89-55.75c-5.08-7.71-13.38-12.55-22.79-13.34-10.31-.89-20.82,3.31-28.16,11.16l-78.72,84.25c-.31.31-.51.45-.51.45h-18.53l-.04.03h-23.44l.03-.03h-23.41l.04-.04H37.79l126.81-134.58h-.01s1.99-2.12,1.99-2.12l.03-.03c.35-.37.69-.75,1.02-1.13.25-.29.49-.58.73-.87,1.42-1.76,2.65-3.63,3.69-5.57.17-.33.34-.65.5-.98.22-.44.42-.88.62-1.32.52-1.19.97-2.39,1.36-3.61h.01c.79-2.5,1.28-5.08,1.47-7.66.16-1.99.13-3.98-.08-5.94-.03-.31-.07-.62-.11-.93-.09-.62-.19-1.22-.31-1.83t0-.01c-.1-.5-.21-.99-.33-1.48-.11-.43-.22-.86-.35-1.29-.11-.37-.22-.74-.35-1.11-.89-2.55-2.11-5-3.67-7.26l-46.72-67.6v-.02s0-.01,0-.01v.02s.02-.01.03-.02l-9.86-14.27v-.02s-.02,0-.03.02l-29.21-42.31c.13-.14.37-.28.37-.28h145.99l20.81,33.45,10.65,17.06,10.63,17.03h-.05l4.85,7.74c4.11,6.65,10.59,11.25,18.15,13.13.01,0,.02.01.03.01h0s.02.05.02.05c1.56.36,3.17.7,4.83.84,4.9.44,9.89-.31,14.52-2t.02-.01l.02.02s.01,0,.02-.01h-.01c.83-.31,1.65-.65,2.45-1.01.81-.37,1.6-.76,2.38-1.19.62-.34,1.24-.7,1.85-1.08.25-.15.5-.32.74-.49.05-.03.11-.06.16-.1.12-.08.24-.17.36-.25.37-.26.74-.51,1.1-.78.53-.39,1.05-.79,1.55-1.21.22-.18.44-.36.65-.55.08-.07.15-.14.23-.21.66-.58,1.3-1.18,1.91-1.82.25-.27.5-.53.74-.8h.01s.01-.02.02-.03t.01-.02v.02s.02-.01.02-.01l-.02-.04,70.27-77.29c.3-.34.54-.48.54-.48h128.82l-.03.03h.03Zm-51.73,203.59s0,.01-.01.01c-.01.01-.02.03-.03.04l-.02-.03v-.02s.01-.03.02-.04h.01s.01,0,.01,0l.02.04Zm-20.17,11.78c-.08-1.04-.1-2.08-.06-3.11-.03,1.04,0,2.08.06,3.11Zm.85,5.41c-.45-1.76-.73-3.57-.85-5.38.13,1.81.41,3.61.85,5.38Zm-304.01-67.52s.01,0,.01-.02h.01v.02s0,.01-.01.02v-.02Zm377.34-119.78v-.03h.02l-.02.03Zm25.9-13.65v-.03c1.16-1.24,2.22-2.55,3.19-3.9-.95,1.37-2.02,2.68-3.19,3.93Zm5.36-7.44c.39-.72.75-1.45,1.09-2.18-.33.74-.69,1.47-1.09,2.18Zm1.73-3.67c.4-.99.75-2.01,1.05-3.03-.29,1.02-.64,2.04-1.05,3.03Zm1.47-4.57c.25-1.02.45-2.05.61-3.08-.15,1.03-.35,2.06-.61,3.08Z"/><path d="m616.89,85.68l.03-.03c-1.64-3.75-3.99-7-6.79-9.69h-.01c-.34-.34-.69-.66-1.05-.97.34.28.67.58.99.88l-47.16-61.44c-5.42-8.98-15.05-14.43-26.07-14.43h-135.99c-9.66,0-19.04,4.23-25.8,11.67l-63.74,70.16h-.01s-.06-.11-.06-.11c-.96-1.53-2.08-2.93-3.31-4.26l-48.42-62.65-.3-.38-.08-.14C253.59,5.46,243.9.17,233.15.17H85.39c-12.93,0-24.84,7.33-31.02,19.11-5.7,10.85-5.12,23.54,1.47,33.06l85.76,124.15L9.57,316.64c-9.39,9.96-12.15,24.06-7.03,35.9.83,1.89,1.85,3.62,3,5.25h.14c.04.05.08.11.12.16l-.15-.02,50.67,65.35c.06.12.13.23.2.34l.21.26c-.06-.08-.12-.17-.17-.26l.19.26h-.02c5.45,8.82,15.02,14.17,25.97,14.17h141.48c9.48,0,18.77-4.12,25.45-11.29l73.85-79.03,6.16,9.34c.17.28.29.52.5.76l55.31,71.86.39-.16h-.01s.02-.02.02-.02h.01s-.02.02-.02.02c5.59,5.42,13.19,8.56,21.38,8.56h145.44c12.73,0,24.5-7.17,30.78-18.67,5.87-10.78,5.6-23.07-.75-32.83l-90.5-139.5,117.73-125.54c9.35-9.97,12.08-24.06,6.97-35.87Z"/><polygon points="458.6 370.52 458.55 370.52 458.58 370.49 458.6 370.52"/><polygon points="385.86 429.52 385.84 429.53 385.83 429.52 385.85 429.51 385.86 429.52"/><path d="m477.93,237.74s0,.01-.01.01c-.01.01-.02.03-.03.04l-.02-.03v-.02s.01-.03.02-.04h.01s.01,0,.01,0l.02.04Z"/><path d="m534.61,343.73s-.01.03-.02.05v.03l-.05-.08s0,0,.01-.02c0-.02,0-.03.01-.05l.02.03.03.04Z"/><polygon points="544.63 359.19 544.58 359.19 544.56 359.16 544.61 359.16 544.63 359.19"/><polygon points="529.12 84.62 529.08 84.66 529.05 84.66 529.08 84.62 529.12 84.62"/><path d="m477.91,237.7s-.01.01-.01.01h-.01s.01-.02.01-.02h.01Z"/><polygon points="529.12 84.62 529.08 84.66 529.05 84.66 529.08 84.62 529.12 84.62"/><path d="m534.59,343.78v.03l-.05-.08s0,0,.01-.02l.04.07Z"/><path d="m526,359.36s-.04.05-.06.07h-.07s.05-.05.07-.07h.06Z"/><polygon points="544.63 359.19 544.58 359.19 544.56 359.16 544.61 359.16 544.63 359.19"/><path d="m114.25,76.72s-.01,0-.02.02l-29.21-42.31c.13-.14.37-.28.37-.28h.04c-.11.04-.38.28-.38.28l29.2,42.29Z" fill="#fff"/><path d="m529.66,34.12l-.03.03h-128.78s-.28.17-.55.48l-.04.07-70.21,77.23-.02-.04,70.27-77.29c.3-.34.54-.48.54-.48h128.82Z" fill="#fff"/><path d="m339.25,309.68c-.05-.02-.09-.03-.14-.05l-36.89-55.75c-5.08-7.71-13.38-12.55-22.79-13.34-10.31-.89-20.82,3.31-28.16,11.16l-78.72,84.25c-.31.31-.51.45-.51.45h-18.53l.03-.04h18.49s.24-.16.52-.44l78.72-84.25c7.34-7.85,17.85-12.05,28.16-11.16l.03-.07c9.38.78,17.71,5.66,22.8,13.34l36.99,55.9Z" fill="#fff"/><path d="m339.29,309.81s-.05-.02-.08-.03l-.04-.06s.05.02.08.03l.04.06Z" fill="#fff"/><polygon points="364.28 336.43 364.19 336.43 364.17 336.4 364.26 336.4 364.28 336.43" fill="#fff"/><polygon points="466.29 101.72 415.11 156.29 415.07 156.25 466.23 101.72 466.29 101.72" fill="#fff"/><path d="m500.64,336.34c-.07.05-.12.09-.12.09h-136.21l-.05-.07h136.33s.03-.01.05-.02Z" fill="#fff"/><polygon points="262.84 84.66 262.81 84.66 252.19 67.6 262.84 84.66" fill="#fff"/><path d="m318.32,120.45c-.8.37-1.62.7-2.44,1.01h-.01c.83-.31,1.65-.65,2.45-1.01Z" fill="#fff"/><path d="m330.04,111.94v.02s-.04.03-.04.03v-.02s0-.01,0-.01c0-.01.01-.01.02-.02t.01-.02v.02Z" fill="#fff"/><polygon points="130.14 336.36 130.1 336.4 106.65 336.4 106.69 336.36 130.14 336.36" fill="#fff"/><polygon points="153.54 336.36 153.51 336.4 153.47 336.43 130.03 336.43 130.1 336.36 153.54 336.36" fill="#fff"/><path d="m174.48,165.9c-.89-2.55-2.11-5-3.67-7.26l-46.72-67.6h.01s46.71,67.57,46.71,67.57v-.04c1.58,2.28,2.81,4.75,3.67,7.33Z" fill="#fff"/><path d="m315.86,121.47h0c-4.64,1.72-9.58,2.47-14.53,2.02-1.67-.13-3.27-.44-4.84-.85,0,0-.02-.01-.03-.01v-.02h0c1.56.37,3.17.71,4.83.85,4.9.44,9.89-.31,14.52-2t.02-.01l.02.02Z" fill="#fff"/><path d="m154.63,187.41l-.02.02v-.04h.01v.02Z"/><polygon points="259.5 14.91 258.1 13.1 258.1 13 259.2 14.43 259.5 14.91"/><polygon points="383.92 366.05 383.88 366.05 383.88 366.04 383.86 366.02 383.9 366.02 383.92 366.05"/><polygon points="413.36 370.52 413.16 370.52 412.96 370.49 413.16 370.49 413.36 370.52"/><polygon points="458.61 370.52 458.55 370.52 458.58 370.49 458.59 370.49 458.61 370.52"/><polygon points="524.46 359.43 524.44 359.43 524.39 359.36 524.41 359.36 524.46 359.43"/><polygon points="313.79 333.09 313.73 333.14 313.72 333.12 313.77 333.06 313.79 333.09"/><path d="m355.09,353.49h-.01l-.04-.06h.01l.04.06Z"/><polygon points="529.12 84.62 529.08 84.66 529.05 84.66 529.08 84.62 529.12 84.62"/><path d="m477.92,237.75s-.02.03-.03.04l-.02-.03s.02-.03.03-.05l.02.04Z"/><polygon points="297.23 75.32 297.2 75.31 297.2 75.27 297.23 75.32"/><path d="m320.62,96.95l-3.21,3.51c-.21.23-.42.45-.63.65.2-.2.4-.41.59-.62l3.25-3.54Z"/><polygon points="320.68 96.88 320.65 96.91 320.62 96.95 320.61 96.94 320.67 96.87 320.68 96.88"/><path d="m477.93,237.74s0,.01-.01.01c-.01.01-.02.03-.03.04l-.02-.03v-.02s.01-.03.02-.04h.01s.01,0,.01,0l.02.04Z"/><polygon points="524.46 359.43 524.44 359.43 524.39 359.36 524.41 359.36 524.46 359.43"/><path d="m526,359.36s-.04.05-.06.07h-.1l.07-.07h.09Z"/><path d="m534.61,343.73s-.01.03-.02.05v.03l-.05-.08s0,0,.01-.02c0-.02,0-.03.01-.05l.02.03.03.04Z"/><path d="m306.42,106.32h0s-.04.01-.04.01c.01,0,.03,0,.04-.01Z"/><polygon points="513.11 101.69 513.08 101.72 513.05 101.72 513.08 101.69 513.11 101.69"/><polygon points="383.92 366.05 383.9 366.05 383.88 366.04 383.86 366.02 383.9 366.02 383.92 366.05"/><path d="m109.02,82.6c.6-.85,1.25-1.67,1.93-2.46-.67.78-1.32,1.6-1.93,2.46Z"/><path d="m114.25,76.72s-.01,0-.02.02l-29.21-42.31c.13-.14.37-.28.37-.28h.04c-.11.04-.38.28-.38.28l29.2,42.29Z"/><polygon points="268.78 67.6 268.74 67.6 267.91 67.37 268.78 67.6"/><path d="m330.04,111.94v.02s-.04.03-.04.03v-.02s0-.01,0-.01c0-.01.01-.01.02-.02t.01-.02v.02Z"/><polygon points="320.68 96.88 320.65 96.91 320.62 96.95 320.61 96.94 320.67 96.87 320.68 96.88"/><path d="m529.66,34.12l-.03.03h-128.78s-.28.17-.55.48l-.04.07-70.21,77.23-.02-.04,70.27-77.29c.3-.34.54-.48.54-.48h128.82Z"/><path d="m154.63,187.41l-.02.02v-.04h.01v.02Z"/><path d="m457.76,249.52c-.08-1.04-.1-2.08-.06-3.11-.03,1.04,0,2.08.06,3.11Z"/><path d="m458.61,254.93c-.45-1.76-.73-3.57-.85-5.38.13,1.81.41,3.61.85,5.38Z"/><polygon points="466.32 101.69 466.29 101.72 415.11 156.29 415.07 156.25 466.23 101.72 466.26 101.69 466.32 101.69"/><path d="m500.64,336.34c-.07.05-.12.09-.12.09h-136.21l-.05-.07h136.33s.03-.01.05-.02Z"/><polygon points="153.54 336.36 153.51 336.4 153.47 336.43 153.44 336.43 153.51 336.36 153.54 336.36"/><path d="m339.25,309.68c-.05-.02-.09-.03-.14-.05l-36.89-55.75c-5.08-7.71-13.38-12.55-22.79-13.34-10.31-.89-20.82,3.31-28.16,11.16l-78.72,84.25c-.31.31-.51.45-.51.45h-18.53l.03-.04h18.49s.24-.16.52-.44l78.72-84.25c7.34-7.85,17.85-12.05,28.16-11.16l.03-.07c9.38.78,17.71,5.66,22.8,13.34l36.99,55.9Z"/><path d="m296.45,122.57v.04l-.03-.05s.02.01.03.01Z"/><polygon points="130.06 336.36 130.02 336.4 106.65 336.4 106.69 336.36 130.06 336.36"/><path d="m410.5,196.52l90.5,139.54s-.04.04-.1.09c-.02,0-.04.03-.07.05-.07.05-.14.11-.19.14-.02.01-.04.02-.05.02h-136.33l.05.07h-.03l-.02-.03h-7.37l-17.6-26.59-.04-.06s-.05-.02-.08-.03l-.06-.09c.05.02.09.03.14.05l-36.99-55.9c-5.09-7.68-13.42-12.56-22.8-13.34l-.03.07c-10.31-.89-20.82,3.31-28.16,11.16l-78.72,84.25c-.28.28-.52.41-.52.44H37.79l126.81-134.58,1.98-2.12.03-.03c.35-.37.69-.75,1.02-1.13.25-.29.49-.58.73-.87,1.43-1.76,2.66-3.63,3.69-5.57.17-.33.34-.65.5-.98.22-.44.42-.88.62-1.32.52-1.19.97-2.39,1.36-3.61h.01c.79-2.5,1.28-5.08,1.47-7.66.16-1.99.13-3.98-.08-5.94-.03-.31-.07-.62-.11-.93-.09-.62-.19-1.22-.31-1.83t0-.01c-.1-.5-.21-.99-.33-1.48-.11-.43-.22-.86-.35-1.29-.11-.37-.22-.74-.35-1.11-.86-2.58-2.09-5.05-3.67-7.33v.04l-46.71-67.58s.01-.01.02-.02l-9.86-14.27v-.02s-29.21-42.29-29.21-42.29c0,0,.27-.24.38-.28h145.95l20.81,33.45,10.62,17.06h.03l10.63,17.03h-.05l4.85,7.74c4.11,6.65,10.59,11.25,18.15,13.13l.03.05v.02s.03.01.04.01c1.57.41,3.17.72,4.84.85,4.95.45,9.89-.3,14.53-2.01h0s.01,0,.02-.02c.82-.31,1.64-.64,2.44-1.01.81-.37,1.6-.76,2.38-1.19.62-.34,1.24-.7,1.85-1.08.25-.15.5-.32.74-.49.05-.03.11-.06.16-.1.12-.08.24-.17.36-.25.37-.26.74-.51,1.1-.78.53-.39,1.05-.79,1.55-1.21.22-.18.44-.36.65-.55.08-.07.15-.14.23-.21.66-.58,1.3-1.18,1.91-1.82.25-.27.5-.53.74-.8v.02s.04-.03.04-.03v-.02s.02-.01.02-.01l70.21-77.23.04-.07c.27-.31.55-.45.55-.48h128.78l-31.33,33.41-16,17.06-16.01,17.07h-.03l-.03.03-51.16,54.53.04.04c-10.69,11.39-12.6,27.95-4.61,40.23Z" fill="#fff"/><path d="m109.02,82.6c.6-.85,1.25-1.67,1.93-2.46-.67.78-1.32,1.6-1.93,2.46Z"/><path d="m154.63,187.41l-.02.02v-.04h.01v.02Z"/><path d="m306.42,106.32h0s-.04.01-.04.01c.01,0,.03,0,.04-.01Z"/><path d="m315.86,121.47s-.01,0-.02,0l-.02-.02s.01-.01.02-.01l.02.02Z"/><path d="m320.62,96.95l-3.21,3.51c-.21.23-.42.45-.63.65.2-.2.4-.41.59-.62l3.25-3.54Z"/><path d="m318.32,120.45c-.8.37-1.62.7-2.44,1.01h-.01c.83-.31,1.65-.65,2.45-1.01Z"/><path d="m330.03,111.96h-.03s.01-.01.02-.02v.02Z"/><polygon points="262.84 84.66 262.81 84.66 252.19 67.6 262.84 84.66"/><polygon points="273.02 68.77 272.98 68.76 272.97 68.75 273.01 68.76 273.02 68.77"/><path d="m339.29,309.81s-.05-.02-.08-.03l-.04-.06s.05.02.08.03l.04.06Z"/><path d="m355.09,353.49h-.01l-.04-.06h.01l.04.06Z"/><polygon points="364.28 336.43 364.19 336.43 364.17 336.4 364.26 336.4 364.28 336.43"/><path d="m457.76,249.52c-.08-1.04-.1-2.08-.06-3.11-.03,1.04,0,2.08.06,3.11Z"/><path d="m458.61,254.93c-.45-1.76-.73-3.57-.85-5.38.13,1.81.41,3.61.85,5.38Z"/><polygon points="153.51 336.36 153.44 336.43 130.03 336.43 130.06 336.4 130.02 336.4 130.06 336.36 153.51 336.36"/><path d="m315.86,121.47h0c-4.64,1.72-9.58,2.47-14.53,2.02-1.67-.13-3.27-.44-4.84-.85l-.02-.02c1.56.36,3.17.7,4.83.84,4.9.44,9.89-.31,14.52-2t.02-.01l.02.02Z"/><path d="m174.48,165.9c-.89-2.55-2.11-5-3.67-7.26l-46.72-67.6v-.02s0-.01,0-.01v.02s46.72,67.58,46.72,67.58v-.04c1.58,2.28,2.81,4.75,3.67,7.33Z"/><polygon points="385.86 429.52 385.84 429.53 385.83 429.52 385.85 429.51 385.86 429.52"/><polygon points="413.36 370.52 413.16 370.52 412.96 370.49 413.16 370.49 413.36 370.52"/><path d="m404.8,420.75l-.06.03c-3.66-.63-6.81-2.61-8.78-5.59v-.03c2.02,3.03,5.15,4.98,8.84,5.59Z"/><path d="m404.86,420.76l-.06.03h-.03s-.02-.01-.03-.01c-3.66-.63-6.81-2.61-8.78-5.59v-.03c2.02,3.03,5.15,4.98,8.84,5.59.02,0,.04.01.06.01Z"/><polygon points="383.92 366.05 383.9 366.05 383.88 366.02 383.9 366.02 383.92 366.05"/><polygon points="383.88 366.05 383.88 366.04 383.86 366.02 383.88 366.02 383.9 366.05 383.88 366.05"/><path d="m561.04,50.05c-.95,1.37-2.02,2.68-3.19,3.93v-.03c1.16-1.24,2.22-2.55,3.19-3.9Z"/><path d="m564.3,44.36c-.33.74-.69,1.47-1.09,2.18.39-.72.75-1.45,1.09-2.18Z"/><path d="m565.99,39.84c-.29,1.02-.64,2.04-1.05,3.03.4-.99.75-2.01,1.05-3.03Z"/><path d="m567.02,35.22c-.15,1.03-.35,2.06-.61,3.08.25-1.02.45-2.05.61-3.08Z"/><polygon points="531.97 67.6 531.95 67.63 531.95 67.6 531.97 67.6"/><path d="m561.04,50.05c-.95,1.37-2.02,2.68-3.19,3.93v-.03c1.16-1.24,2.22-2.55,3.19-3.9Z"/><path d="m564.3,44.36c-.33.74-.69,1.47-1.09,2.18.39-.72.75-1.45,1.09-2.18Z"/><path d="m565.99,39.84c-.29,1.02-.64,2.04-1.05,3.03.4-.99.75-2.01,1.05-3.03Z"/><path d="m567.02,35.22c-.15,1.03-.35,2.06-.61,3.08.25-1.02.45-2.05.61-3.08Z"/><polygon points="531.97 67.6 531.95 67.63 531.95 67.6 531.97 67.6"/><path d="m307.92,77.46h-.03c-.74-.82-1.52-1.59-2.34-2.32.83.72,1.62,1.5,2.37,2.32Z"/><polygon points="297.23 75.32 297.2 75.31 297.2 75.27 297.23 75.32"/><path d="m307.92,77.46h-.03c-.74-.82-1.52-1.59-2.34-2.32.83.72,1.62,1.5,2.37,2.32Z"/><polygon points="259.5 14.91 258.1 13.1 258.1 13 259.2 14.43 259.5 14.91"/><polygon points="273.02 68.77 272.98 68.76 272.97 68.75 272.26 67.6 272.29 67.6 273.01 68.76 273.02 68.77"/><polygon points="268.78 67.6 268.74 67.6 267.91 67.37 268.78 67.6"/><polygon points="273.01 68.76 272.97 68.75 272.26 67.6 272.29 67.6 273.01 68.76"/></g></g></svg>