<?xml version="1.0" encoding="UTF-8"?><svg id="b" xmlns="http://www.w3.org/2000/svg" width="415.13" height="423.79" viewBox="0 0 415.13 423.79"><g id="c"><g><g><path d="m85.93,274.59h-.14v-.02c.05,0,.09.02.14.02Z"/><path d="m160.08,337.9c-.06.46-.12.92-.19,1.38v-1.38h.19Z"/></g><path d="m396.42,147.16c-20.12-41.75-57.15-87.48-61.72-92.13-.02-.02-.04-.04-.06-.06C306.09,21.09,262.7.05,211.48,0h-.19C110.01,0,16.05,82.39,1.82,183.74c-7.04,50.15,6.71,95.63,34.69,128.79,15.27,21.03,38.75,49.69,65.46,69.35,1.61,1.18,3.22,2.24,4.84,3.18,28.17,25.1,65.1,38.73,105.88,38.73,97.02,0,187.03-78.87,200.65-175.81h0c5.12-36.44-.85-71.24-16.92-100.82Zm-73.64-83.33c.76.88,1.5,1.77,2.22,2.67-.72-.19-1.46-.32-2.21-.39l-.47-1.94.46-.34Zm-187.41,237.26c-.16,1.17-.32,2.33-.49,3.5-.09.68-.18,1.36-.28,2.04-1.26,9.09-2.54,18.19-3.81,27.28-7.71-1.47-15.18-3.61-22.32-6.37-4.02-1.55-7.94-3.3-11.75-5.26-7.22-3.67-14.03-8.06-20.35-13.09-6.57-5.22-12.61-11.15-18.03-17.73l-.9-1.11c-3.91-4.86-7.42-9.97-10.52-15.29-7.16-12.31-12.12-25.74-14.75-39.84,4.41,4.67,8.78,9.08,13.13,13.29,3.88,3.73,7.55,7.04,11.13,9.99,4.43,3.65,8.71,6.76,13.03,9.48.48.3.97.6,1.45.89,4.74,2.76,9.72,4.65,14.88,5.7.05,0,.09.02.14.02h.03c3.28.67,6.6.99,10.02,1,3.3-.05,6.61.05,10.12.14,1.61.04,3.21.08,4.82.11h0c.49.01.97.02,1.46.03,13.93.18,22.81,8.78,23.16,22.44.02.86-.04,1.79-.18,2.78Zm142.31-9.73c-34.17,29.96-75.93,46.49-117.6,46.54-.06.46-.12.92-.19,1.38v-1.38h.19c1.54-10.92,3.07-21.83,4.58-32.75.36-2.58.51-5.13.45-7.59-.77-29.78-22.29-50.86-52.32-51.26-1.97-.03-3.95-.08-5.92-.13-3.65-.1-7.42-.2-11.27-.15-2.83.08-5.34-.48-7.88-1.68-.83-.38-1.66-.84-2.5-1.37-3.56-2.25-7.06-4.82-10.8-7.95-2.7-2.28-5.53-4.84-8.58-7.79-1.29-1.25-2.59-2.52-3.89-3.82-10-9.94-20.22-21.22-31.02-34.25.05-.43.11-.87.17-1.31,5.9-42,28.03-81.69,62.31-111.76,34.21-30,76.07-46.53,117.88-46.53h.16c38.57.04,72.77,14.27,96.8,40.17-2.8,1.1-5.6,2.18-8.4,3.27-.62.24-1.25.48-1.87.72-8.33,3.23-16.67,6.46-24.98,9.75-.91.36-1.83.72-2.74,1.08-3.69,1.47-7.27,2.23-10.88,2.12-5.05-.06-11.05-.1-17.25.05-10.43.26-20.2,7-24.68,16.4-.81,1.72-1.45,3.52-1.89,5.39-2.27,9.71-4.47,19.43-6.61,29.16-1.91,8.72-6.52,14.11-14.93,17.48l-1.41.55c-1.65.63-3.7,1.42-5.83,2.52-9.89,5.14-16.09,16.37-15.08,27.29,1.13,12.19,11.03,21.8,23.04,22.36,3.68.17,7.16.04,10.52-.08l1.82-.06c4.86-.16,9.73-.34,14.6-.52,8.78-.31,17.56-.63,26.33-.84,7.17-.19,12.94,1.9,17.68,6.31,6.16,5.76,8.56,12.86,7.55,22.37-.51,4.94-1.09,9.88-1.67,14.82l-.89,7.71c-.84,7.3,1.29,14.25,5.99,19.56,2.46,2.78,4.94,5.54,7.45,8.32-2.1,2.01-4.24,3.97-6.44,5.9Zm22.92-31.81c-.12-.13-.23-.25-.34-.38l.68-5.87c.59-5.05,1.18-10.1,1.71-15.15,1.98-18.7-3.83-34.99-16.79-47.08-10.38-9.69-23.72-14.58-38.56-14.26-8.89.21-17.79.53-26.69.86-2.08.07-4.17.15-6.24.22,12.18-7.58,20.22-19.13,23.46-33.87,2.04-9.26,4.13-18.51,6.28-27.77,5.3-.11,10.48-.07,14.92-.01,7.45.08,14.9-1.33,22.14-4.2,6.69-2.66,13.4-5.28,20.1-7.88,2.46-.96,4.93-1.91,7.39-2.87,2.31-.89,4.61-1.78,6.92-2.68,2.79,4.82,5.24,9.78,7.34,14.88,5.81,14.07,8.97,29.16,9.45,45.1,1.07,35.84-9.6,69.73-31.77,100.96Z"/><g><g><path d="m85.93,274.59h-.14v-.02c.05,0,.09.02.14.02Z"/><path d="m160.08,337.9c-.06.46-.12.92-.19,1.38v-1.38h.19Z"/><path d="m308.25,69.73c-2.8,1.1-5.6,2.18-8.4,3.27-.62.24-1.25.48-1.87.72-8.33,3.23-16.67,6.46-24.98,9.75-.91.36-1.83.72-2.74,1.08-3.69,1.47-7.27,2.23-10.88,2.12-5.05-.06-11.05-.1-17.25.05-10.43.26-20.2,7-24.68,16.4-.81,1.72-1.45,3.52-1.89,5.39-2.27,9.71-4.47,19.43-6.61,29.16-1.91,8.72-6.52,14.11-14.93,17.48l-1.41.55c-1.65.63-3.7,1.42-5.83,2.52-9.89,5.14-16.09,16.37-15.08,27.29,1.13,12.19,11.03,21.8,23.04,22.36,3.68.17,7.16.04,10.52-.08l1.82-.06c4.86-.16,9.73-.34,14.6-.52,8.78-.31,17.56-.63,26.33-.84,7.17-.19,12.94,1.9,17.68,6.31,6.16,5.76,8.56,12.86,7.55,22.37-.51,4.94-1.09,9.88-1.67,14.82l-.89,7.71c-.84,7.3,1.29,14.25,5.99,19.56,2.46,2.78,4.94,5.54,7.45,8.32-2.1,2.01-4.24,3.97-6.44,5.9-34.17,29.96-75.93,46.49-117.6,46.54,1.54-10.92,3.07-21.83,4.58-32.75.36-2.58.51-5.13.45-7.59-.77-29.78-22.29-50.86-52.32-51.26-1.97-.03-3.95-.08-5.92-.13-3.65-.1-7.42-.2-11.27-.15-2.83.08-5.34-.48-7.88-1.68-.83-.38-1.66-.84-2.5-1.37-3.56-2.25-7.06-4.82-10.8-7.95-2.7-2.28-5.53-4.84-8.58-7.79-1.29-1.25-2.59-2.52-3.89-3.82-10-9.94-20.22-21.22-31.02-34.25.05-.43.11-.87.17-1.31,5.9-42,28.03-81.69,62.31-111.76,34.21-30,76.07-46.53,117.88-46.53h.16c38.57.04,72.77,14.27,96.8,40.17Z" fill="#fff"/><path d="m325,66.5c-.72-.19-1.46-.32-2.21-.39l-.47-1.94.46-.34c.76.88,1.5,1.77,2.22,2.67Z"/></g><path d="m322.78,63.83l-.46.34.47,1.94c.75.07,1.49.2,2.21.39-.72-.9-1.46-1.79-2.22-2.67Zm-162.89,274.07v1.38c.07-.46.13-.92.19-1.38h-.19Z"/></g><g><g><g><path d="m135.55,298.31c.02.86-.04,1.79-.18,2.78-.16,1.17-.32,2.33-.49,3.5-.09.68-.18,1.36-.28,2.04-1.26,9.09-2.54,18.19-3.81,27.28-7.71-1.47-15.18-3.61-22.32-6.37-4.02-1.55-7.94-3.3-11.75-5.26-7.22-3.67-14.03-8.06-20.35-13.09-6.57-5.22-12.61-11.15-18.03-17.73l-.9-1.11c-3.91-4.86-7.42-9.97-10.52-15.29-7.16-12.31-12.12-25.74-14.75-39.84,4.41,4.67,8.78,9.08,13.13,13.29,3.88,3.73,7.55,7.04,11.13,9.99,4.43,3.65,8.71,6.76,13.03,9.48.48.3.97.6,1.45.89,4.74,2.76,9.72,4.65,14.88,5.7v.02h.17c3.28.67,6.6.99,10.02,1,3.3-.05,6.61.05,10.12.14,1.61.04,3.21.08,4.82.11h0c.49.01.97.02,1.46.03,13.93.18,22.81,8.78,23.16,22.44Z" fill="#fff"/><path d="m85.93,274.59h-.14v-.02c.05,0,.09.02.14.02Z"/></g><path d="m159.89,337.9v1.38c.07-.46.13-.92.19-1.38h-.19Z"/></g><path d="m300.6,259.55c-.12-.13-.23-.25-.34-.38l.68-5.87c.59-5.05,1.18-10.1,1.71-15.15,1.98-18.7-3.83-34.99-16.79-47.08-10.38-9.69-23.72-14.58-38.56-14.26-8.89.21-17.79.53-26.69.86-2.08.07-4.17.15-6.24.22,12.18-7.58,20.22-19.13,23.46-33.87,2.04-9.26,4.13-18.51,6.28-27.77,5.3-.11,10.48-.07,14.92-.01,7.45.08,14.9-1.33,22.14-4.2,6.69-2.66,13.4-5.28,20.1-7.88,2.46-.96,4.93-1.91,7.39-2.87,2.31-.89,4.61-1.78,6.92-2.68,2.79,4.82,5.24,9.78,7.34,14.88,5.81,14.07,8.97,29.16,9.45,45.1,1.07,35.84-9.6,69.73-31.77,100.96Z" fill="#fff"/></g><path d="m325,66.5c-.72-.19-1.46-.32-2.21-.39l-.47-1.94.46-.34c.76.88,1.5,1.77,2.22,2.67Z"/></g></g></svg>