<?xml version="1.0" encoding="UTF-8"?><svg id="b" xmlns="http://www.w3.org/2000/svg" width="410.05" height="390.59" viewBox="0 0 410.05 390.59"><g id="c"><g><g><path d="m69.32,216.66l-2.08.02c-.4-1.12-.77-2.23-1.13-3.34-.19-.59-.37-1.17-.55-1.76,1.24,1.7,2.49,3.4,3.76,5.08Z"/><path d="m65.56,211.58c.18.59.36,1.17.55,1.76.36,1.11.73,2.22,1.13,3.34l2.08-.02c-1.27-1.68-2.52-3.38-3.76-5.08Z"/></g><path d="m52.21,218.38c-.36-.5-.72-1-1.07-1.51h.59c.1.33.2.66.31.99.05.17.11.34.17.52Z"/><g><g><path d="m52.21,218.38c-.36-.5-.72-1-1.07-1.51h.59c.1.33.2.66.31.99.05.17.11.34.17.52Z" fill="#fff"/><path d="m69.32,216.66l-2.08.02c-.4-1.12-.77-2.23-1.13-3.34-.19-.59-.37-1.17-.55-1.76,1.24,1.7,2.49,3.4,3.76,5.08Z" fill="#fff"/></g><g><path d="m65.56,211.58c.18.59.36,1.17.55,1.76.36,1.11.73,2.22,1.13,3.34l2.08-.02c-1.27-1.68-2.52-3.38-3.76-5.08Zm-13.52,6.28c-.11-.33-.21-.66-.31-.99h-.59c.35.51.71,1.01,1.07,1.51-.06-.18-.12-.35-.17-.52Z"/><path d="m394.01,102.75c-3.87-6.23-8.36-11.97-13.36-17.16l-37.25-44.3C323.98,15.62,293.42,0,261.57,0c-1.9,0-3.83.06-5.72.17-30.12,1.77-52.27,12.74-67.72,24.65C170.91,10.27,148.59,1.65,123.61.17c-1.88-.11-3.81-.17-5.72-.17C82.36,0,46.21,19.29,23.56,50.34-.32,83.09-6.29,123.51,6.75,164.16c5.99,18.67,21.47,52.21,61.37,97.85,11.05,12.65,21.98,25.41,32.51,38.49,17.92,22.26,41.98,47.88,74.25,76.47,9.91,8.78,22.79,13.61,36.28,13.61,12.74,0,25.44-4.37,35.76-12.3,42.58-32.75,118.43-96.61,147.88-156.4,20.6-41.8,20.31-85.23-.79-119.14Zm-71.02,52.38c-27.48,55.79-104,118.81-139.38,146.02-5.35,4.12-11.63,6.17-17.73,6.17s-12.03-2.05-16.67-6.17c-10.23-9.07-24.34-22.1-39.27-37.52-.36-.37-.73-.74-1.08-1.12-13.31-13.8-27.2-29.46-39.54-45.85-1.27-1.68-2.52-3.38-3.76-5.08-7.65-10.54-14.58-21.34-20.22-32.1-4.3-8.18-7.86-16.34-10.43-24.35C11.91,83.47,68.3,29.57,117.89,29.57c1.33,0,2.65.04,3.97.12,28.31,1.67,45.11,14.17,54.42,24.83.64.73,1.24,1.45,1.81,2.16,2.39,2.98,5.86,4.51,9.34,4.51,2.74,0,5.48-.95,7.68-2.89.27-.24.52-.49.77-.75,10.57-11.16,30.34-26.02,61.7-27.86,1.34-.08,2.66-.12,3.99-.12,20.27,0,40.12,9,54.09,24.53,4.5,4.98,8.38,10.63,11.47,16.88,2.69,5.4,4.78,11.24,6.16,17.47.18.74.33,1.48.47,2.23.52,2.63.9,5.32,1.15,8.08,1.54,16.76-1.81,35.84-11.92,56.37Z"/><path d="m249.39,138.58l-4.09,25.64c-.56,3.45-3.53,5.99-7.03,5.99h-36.39c-2.31,0-4.28,1.69-4.64,3.97l-5.27,33.08c-.55,3.46-3.53,6-7.02,6h-33.29c-4.38,0-7.71-3.91-7.03-8.23l4.68-29.37c.45-2.86-1.76-5.45-4.65-5.45h-32.33c-4.39,0-7.73-3.94-7.01-8.27l4.24-25.64c.57-3.44,3.54-5.95,7.02-5.95h35.93c2.32,0,4.29-1.69,4.65-3.97l5.27-33.09c.55-3.45,3.52-5.99,7.02-5.99h33.29c4.37,0,7.71,3.91,7.03,8.23l-.29,1.8-4.39,27.57c-.45,2.86,1.76,5.45,4.65,5.45h32.62c4.38,0,7.71,3.91,7.03,8.23Zm85.52-39.82c-.25-2.76-.63-5.45-1.15-8.08-.14-.75-.29-1.49-.47-2.23-1.38-6.23-3.47-12.07-6.16-17.47-3.09-6.25-6.97-11.9-11.47-16.88-13.97-15.53-33.82-24.53-54.09-24.53-1.33,0-2.65.04-3.99.12-31.36,1.84-51.13,16.7-61.7,27.86-.25.26-.5.51-.77.75-2.2,1.94-4.94,2.89-7.68,2.89-3.48,0-6.95-1.53-9.34-4.51-.57-.71-1.17-1.43-1.81-2.16-9.31-10.66-26.11-23.16-54.42-24.83-1.32-.08-2.64-.12-3.97-.12-49.59,0-105.98,53.9-82.98,125.56,2.57,8.01,6.13,16.17,10.43,24.35,5.64,10.76,12.57,21.56,20.22,32.1,1.24,1.7,2.49,3.4,3.76,5.08,12.34,16.39,26.23,32.05,39.54,45.85.35.38.72.75,1.08,1.12,14.93,15.42,29.04,28.45,39.27,37.52,4.64,4.12,10.57,6.17,16.67,6.17s12.38-2.05,17.73-6.17c35.38-27.21,111.9-90.23,139.38-146.02,10.11-20.53,13.46-39.61,11.92-56.37Z" fill="#fff"/></g></g><path d="m249.39,138.58l-4.09,25.64c-.56,3.45-3.53,5.99-7.03,5.99h-36.39c-2.31,0-4.28,1.69-4.64,3.97l-5.27,33.08c-.55,3.46-3.53,6-7.02,6h-33.29c-4.38,0-7.71-3.91-7.03-8.23l4.68-29.37c.45-2.86-1.76-5.45-4.65-5.45h-32.33c-4.39,0-7.73-3.94-7.01-8.27l4.24-25.64c.57-3.44,3.54-5.95,7.02-5.95h35.93c2.32,0,4.29-1.69,4.65-3.97l5.27-33.09c.55-3.45,3.52-5.99,7.02-5.99h33.29c4.37,0,7.71,3.91,7.03,8.23l-.29,1.8-4.39,27.57c-.45,2.86,1.76,5.45,4.65,5.45h32.62c4.38,0,7.71,3.91,7.03,8.23Z"/></g></g></svg>