<?xml version="1.0" encoding="UTF-8"?><svg id="b" xmlns="http://www.w3.org/2000/svg" width="290.75" height="420.45" viewBox="0 0 290.75 420.45"><g id="c"><g><g><path d="m185.51,69.97c-.09.23-.17.45-.26.68v-.68h.26Z"/><g><path d="m185.25,69.97v.68c.09-.23.17-.45.26-.68h-.26Z"/><path d="m286.98,188.25c-2.37-4.69-5.63-8.63-9.55-11.7l-33.04-37.63c4.65-12,9.29-23.99,13.94-35.99,4.23-10.95,2.9-23.14-3.57-32.59-1.55-2.27-3.36-4.33-5.38-6.13l-42.72-48.66c-.08-.14-.17-.27-.26-.4C199.93,5.69,189.05.03,177.3,0c-6.24,0-12.49,0-18.74,0h-23.39s-7.91,0-7.91,0h-15.83S93.84,0,93.84,0C78.08,0,65.39,8.85,59.89,23.66L3.44,175.81l-.29.75c-.42,1.07-.99,2.55-1.54,4.31-3.1,9.92-1.69,20.57,3.87,29.24,5.57,8.68,14.68,14.4,24.99,15.7,2.27.29,4.21.33,5.63.33h42.21c-11.72,30.35-23.44,60.7-35.15,91.05-5.54,14.35-1.56,29.72,9,39.17l47.64,54.86.23-.12c3.02,2.82,6.61,5.14,10.7,6.79,4.22,1.7,8.62,2.56,13.07,2.56,11.08,0,21.34-5.32,28.14-14.61,3.26-4.45,6.5-8.9,9.74-13.36l3.75-5.15,23.55-32.35,44.57-61.21c16.69-22.92,33.37-45.83,50.08-68.73,8.12-11.12,9.37-24.87,3.35-36.79Zm-75.59-35.83c-2.8,3.84-5.59,7.67-8.39,11.51-13.91,19.07-27.81,38.16-41.71,57.24-5.12,7.03-10.24,14.07-15.36,21.1-3.31,4.54-6.61,9.08-9.91,13.62-3.01,4.12-6.01,8.24-9.01,12.36-11.28,15.5-22.56,30.99-33.84,46.49-2.98,4.09-5.95,8.18-8.93,12.26-1.5,2.06-3,4.12-4.5,6.17-1.24,1.69-2.7,2.52-4.29,2.52-.65,0-1.33-.14-2.02-.41-.49-.2-.93-.45-1.31-.73-1.92-1.43-2.47-3.87-1.37-6.71,10.18-26.39,20.36-52.76,30.55-79.14,2.2-5.7,4.4-11.41,6.6-17.11.27-.7.54-1.41.82-2.11,3.28-8.49,6.58-16.97,9.86-25.46,1.08-2.81.25-5.56-2.22-6.76-.07-.03-.15-.07-.22-.09-1.01-.43-2.22-.57-3.34-.57-3.83-.01-7.67-.01-11.5-.01-21.5-.03-43-.02-64.5-.02h-.7c-.64,0-1.28-.01-1.92-.09-3.35-.43-5.36-3.55-4.35-6.77.38-1.23.88-2.41,1.33-3.62,18.82-50.72,37.64-101.43,56.45-152.15,1.22-3.29,2.75-4.36,6.24-4.37h64.71c6.23,0,12.46,0,18.69,0,4.27.01,6.68,3.53,5.14,7.5-2.33,6.04-4.67,12.07-7.01,18.11-1.9,4.93-3.81,9.86-5.72,14.79-1.91,4.93-3.82,9.85-5.73,14.78-3.54,9.14-7.08,18.28-10.62,27.42-3.07,7.95-6.16,15.89-9.22,23.84-1.3,3.38.32,6.71,3.59,7.34.71.14,1.45.15,2.19.15h.27c9.32,0,18.65.01,27.98.01s19.17-.01,28.75-.02h.01c1.41,0,2.66.26,3.67.94.67.44,1.25,1.08,1.68,1.95,1.1,2.17.55,4.13-.84,6.03Z"/></g></g><path d="m185.51,69.97c-.09.23-.17.45-.26.68v-.68h.26Z"/><g><g><path d="m185.51,69.97c-.09.23-.17.45-.26.68v-.68h.26Z" fill="#fff"/><path d="m211.39,152.42c-2.8,3.84-5.59,7.67-8.39,11.51-13.91,19.07-27.81,38.16-41.71,57.24-5.12,7.03-10.24,14.07-15.36,21.1-3.31,4.54-6.61,9.08-9.91,13.62-3.01,4.12-6.01,8.24-9.01,12.36-11.28,15.5-22.56,30.99-33.84,46.49-2.98,4.09-5.95,8.18-8.93,12.26-1.5,2.06-3,4.12-4.5,6.17-1.24,1.69-2.7,2.52-4.29,2.52-.65,0-1.33-.14-2.02-.41-.49-.2-.93-.45-1.31-.73-1.92-1.43-2.47-3.87-1.37-6.71,10.18-26.39,20.36-52.76,30.55-79.14,2.2-5.7,4.4-11.41,6.6-17.11.27-.7.54-1.41.82-2.11,3.28-8.49,6.58-16.97,9.86-25.46,1.08-2.81.25-5.56-2.22-6.76-.07-.03-.15-.07-.22-.09-1.01-.43-2.22-.57-3.34-.57-3.83-.01-7.67-.01-11.5-.01-21.5-.03-43-.02-64.5-.02h-.7c-.64,0-1.28-.01-1.92-.09-3.35-.43-5.36-3.55-4.35-6.77.38-1.23.88-2.41,1.33-3.62,18.82-50.72,37.64-101.43,56.45-152.15,1.22-3.29,2.75-4.36,6.24-4.37h64.71c6.23,0,12.46,0,18.69,0,4.27.01,6.68,3.53,5.14,7.5-2.33,6.04-4.67,12.07-7.01,18.11-1.9,4.93-3.81,9.86-5.72,14.79-1.91,4.93-3.82,9.85-5.73,14.78-3.54,9.14-7.08,18.28-10.62,27.42-3.07,7.95-6.16,15.89-9.22,23.84-1.3,3.38.32,6.71,3.59,7.34.71.14,1.45.15,2.19.15h.27c9.32,0,18.65.01,27.98.01s19.17-.01,28.75-.02h.01c1.41,0,2.66.26,3.67.94.67.44,1.25,1.08,1.68,1.95,1.1,2.17.55,4.13-.84,6.03Z" fill="#fff"/></g><path d="m185.25,69.97v.68c.09-.23.17-.45.26-.68h-.26Z"/></g></g></g></svg>