<?xml version="1.0" encoding="UTF-8"?><svg id="b" xmlns="http://www.w3.org/2000/svg" width="437.28" height="399.74" viewBox="0 0 437.28 399.74"><g id="c"><g><path d="m437.14,185.51c1.21-23.58-5.39-43.6-19.65-59.52l-52.69-63.84c-1.61-2.15-3.35-4.23-5.22-6.25-20.63-22.23-55.81-34.84-107.24-38.35-1.03-1.79-2.23-3.49-3.58-5.09-6.71-7.92-16.51-12.46-26.89-12.46h-19.18c-12.61,0-23.8,6.59-30.04,16.77-66.05,1.74-137.03,15.04-151.96,81.4l-.04.18-.04.18c-1.44,6.81-2.17,13.72-2.17,20.54,0,16.6,3.41,34.6,13.99,50.56-17.24,1.44-31.14,15.43-32.23,33.02-1.61,26.33,6.37,49.78,23.07,67.83.75.81,1.52,1.61,2.3,2.4l52.71,64.87.23-.16c.55.64,1.12,1.27,1.7,1.9,21.97,23.74,57.03,37.1,106.78,40.61,1.27,2.56,2.86,4.99,4.75,7.21,6.7,7.9,16.49,12.43,26.85,12.43h19.17c13.51,0,25.37-7.55,31.28-18.97,100.05-3.1,149.72-32.73,160.25-94.86l.05-.3.05-.3c1.09-7.38,1.54-13.71,1.54-21.82,0-18.86-4.59-34.93-13.69-48.08,11.26-5.41,19.23-16.64,19.9-29.9Z"/><path d="m348.19,108.06c-.3-5.3-1.25-10.6-3.19-15.75-8.72-23.23-37.3-43.32-115.17-45.18-3.43-.08-5.99-3.21-5.43-6.59l.58-3.48c.58-3.45-2.08-6.59-5.58-6.59h-19.18c-2.76,0-5.13,2-5.58,4.73l-1.18,7.08c-.46,2.74-2.82,4.74-5.59,4.74h-.11c-97.48,0-132.42,21.76-140.69,58.54-1.24,5.82-1.54,10.73-1.54,14.41,0,20.11,6.55,39.22,28.88,51.99,4.1,2.35,8.74,4.48,13.97,6.36,4.38,1.58,9.17,2.99,14.41,4.2,11.02,2.54,24.01,4.24,39.3,4.89l21.94,1.19c3.35.19,5.8,3.23,5.28,6.54l-4.25,27.05c-.44,2.82-2.89,4.78-5.63,4.78-.41,0-.83-.04-1.26-.14-17.23-3.83-22.03-13.15-23.14-21.86-.36-2.83-2.67-4.99-5.52-4.99H32.91c-3.03,0-5.48,2.37-5.66,5.39-1.08,17.59,3.1,40.96,29.4,57.51,3.93,2.48,8.37,4.8,13.35,6.93.42.18.84.36,1.27.54,3.95,1.63,8.24,3.14,12.9,4.52,8.58,2.53,18.41,4.59,29.65,6.04,10.47,1.36,22.16,2.19,35.21,2.4,3.44.05,6.04,3.17,5.48,6.57l-.92,5.6c-.56,3.44,2.1,6.58,5.59,6.58h19.17c2.78,0,5.14-2.01,5.59-4.75l1.51-9.2c.45-2.74,2.81-4.75,5.59-4.75h.4c1.21,0,2.41,0,3.59-.01,10.14-.06,19.57-.37,28.35-.91,11.49-.71,21.86-1.81,31.23-3.27,13.18-2.06,24.38-4.81,33.89-8.17,36.56-12.86,48.21-34.43,52.23-58.15.29-1.99.52-3.84.7-5.67.38-3.8.52-7.45.52-11.8,0-1.77-.05-3.49-.17-5.18-2.38-36.86-31.3-53.83-102.83-57.04l-22.51-.97c-3.36-.14-5.86-3.17-5.35-6.5l1.32-8.74,1.79-11.89c.18-1.21.74-2.28,1.54-3.09,1.04-1.08,2.52-1.72,4.09-1.72.36,0,.72.03,1.09.1,1.87.35,3.59.75,5.18,1.18,12.55,3.39,16.82,8.97,18.14,14.5.05.2.09.39.13.59.54,2.66,2.84,4.57,5.55,4.57h92.63c2.99,0,5.5-2.32,5.65-5.3.13-2.6.15-5.21-.01-7.83Zm-164.56-2.37l-2.26,14.53-.75,4.83c-.43,2.8-2.85,4.79-5.62,4.79-.24,0-.48,0-.72-.04-8.11-1.02-13.72-2.4-17.56-4.14-6.35-2.88-7.88-6.74-7.88-11.51,0-.45.02-.89.06-1.32.61-7.15,6.65-12.16,28.72-13.67.13-.01.26-.01.4-.01,3.22,0,5.8,2.7,5.67,5.88,0,.22-.02.44-.06.66Zm45.07,92.78c3.6,3.07,4.43,6.82,4.43,11,0,8.17-5.93,16.32-31.04,18.8-.2,0-.39.02-.58.02-3.42,0-6.15-3.05-5.62-6.52l3.93-25.66c.43-2.78,2.82-4.82,5.57-4.82.22,0,.45.02.68.05,1.04.13,2.04.26,3.01.4,10.2,1.49,16.17,3.8,19.62,6.73Z" fill="#f7f8f8"/></g></g></svg>