<?xml version="1.0" encoding="UTF-8"?><svg id="b" xmlns="http://www.w3.org/2000/svg" width="409.5" height="382.72" viewBox="0 0 409.5 382.72"><g id="c"><g><path d="m399.75,167.73l.35-.27-46.74-55.56c-1.36-2.38-2.95-4.65-4.77-6.78-6.35-7.44-14.87-12.5-24.24-14.54-1.79-4.86-4.44-9.41-7.88-13.45-.12-.14-.24-.28-.37-.41l-.43-.51-43.7-51.96c-1.57-3.08-3.51-5.99-5.8-8.68-8.44-9.9-20.74-15.57-33.74-15.57h-69.25c-21.94,0-40.36,15.73-43.81,37.39l-8.3,52.16h-57.86c-21.8,0-40.21,15.61-43.77,37.11L.6,180c-2.01,12.18,1.11,24.56,8.6,34.29l1.7,2.08.15.17,47.23,57.66v.02c.8,1.13,1.65,2.23,2.55,3.29,6.21,7.32,14.51,12.34,23.65,14.49,1.8,4.91,4.47,9.52,7.95,13.59,1.01,1.18,2.08,2.32,3.2,3.37l.02.02,44.05,54.21.02.03c.92,1.36,1.92,2.67,3,3.94,8.44,9.89,20.74,15.56,33.75,15.56h69.24c21.94,0,40.37-15.72,43.82-37.39l8.29-52.15h58.81c21.93,0,40.36-15.72,43.81-37.38l8.51-53.33c1.98-12.4-1.37-24.98-9.2-34.74Zm-70.3-31.49l-2.37,14.87-2.36,14.79-2.35,14.78-1.42,8.9c-1.15,7.18-7.34,12.47-14.62,12.47h-75.68c-4.82,0-8.92,3.49-9.67,8.25l-10.95,68.82c-1.14,7.18-7.34,12.47-14.61,12.47h-69.25c-7.75,0-13.92-5.9-14.71-13.19-.14-1.27-.11-2.59.1-3.93l1.73-10.86,7.99-50.24c.94-5.94-3.65-11.32-9.67-11.32H44.37c-9.14,0-16.09-8.21-14.6-17.22l8.84-53.34c1.18-7.14,7.36-12.38,14.6-12.38h74.74c4.81,0,8.91-3.49,9.67-8.25l10.95-68.82c1.14-7.18,7.34-12.47,14.61-12.47h69.25c9.1,0,16.04,8.14,14.61,17.12l-2.37,14.88-2.35,14.78-2.35,14.79-2.65,16.64c-.94,5.95,3.65,11.33,9.67,11.33h67.85c3.93,0,7.45,1.52,10.08,3.97,3.46,3.22,5.35,8.05,4.53,13.16Z"/><g><path d="m9.2,214.29c.43.56.87,1.11,1.33,1.65.12.15.25.29.37.43l-1.7-2.08Z"/><path d="m329.45,136.24l-2.37,14.87-2.36,14.79-2.35,14.78-1.42,8.9c-1.15,7.18-7.34,12.47-14.62,12.47h-75.68c-4.82,0-8.92,3.49-9.67,8.25l-10.95,68.82c-1.14,7.18-7.34,12.47-14.61,12.47h-69.25c-7.75,0-13.92-5.9-14.71-13.19-.14-1.27-.11-2.59.1-3.93l1.73-10.86,7.99-50.24c.94-5.94-3.65-11.32-9.67-11.32H44.37c-9.14,0-16.09-8.21-14.6-17.22l8.84-53.34c1.18-7.14,7.36-12.38,14.6-12.38h74.74c4.81,0,8.91-3.49,9.67-8.25l10.95-68.82c1.14-7.18,7.34-12.47,14.61-12.47h69.25c9.1,0,16.04,8.14,14.61,17.12l-2.37,14.88-2.35,14.78-2.35,14.79-2.65,16.64c-.94,5.95,3.65,11.33,9.67,11.33h67.85c3.93,0,7.45,1.52,10.08,3.97,3.46,3.22,5.35,8.05,4.53,13.16Z" fill="#fff"/></g></g></g></svg>