<?xml version="1.0" encoding="UTF-8"?><svg id="b" xmlns="http://www.w3.org/2000/svg" width="470.36" height="446.58" viewBox="0 0 470.36 446.58"><g id="c"><g><path d="m7.97,221.96l-1.16-1.43h.17c.31.48.65.96.99,1.43Z" fill="#231815"/><g><path d="m385.57,188.46c-.35,11.15-10.31,21.28-22.91,21.5,0,0-36.1,0-36.1,0-12.09,0-22.47,8.7-24.16,20.25l-14.39,98.85c-1.05,7.2-5.73,13.75-12.03,17.96-4.5,3.01-9.84,4.83-15.26,4.83,0,0-49.33,0-49.33,0l13.64-93.7c1.03-7.06-1.08-14.11-5.78-19.32-14.96-16.53-43.64-6.06-46.62,15.23,0,0-14.23,97.79-14.23,97.79h-53.61c-5.49,0-10.24-1.91-13.36-5.38-3.08-3.42-4.37-8.15-3.62-13.31,0,0,4.21-28.89,4.21-28.89,3.13-21.67,7.03-48.23,10.18-69.96.02-.11.03-.22.04-.33,1.39-9.53-4.45-19.01-13.37-22.38-2.69-1.08-5.61-1.64-8.62-1.64h-36.1c-16.21-.04-17.91-17.89-5.7-28L207.35,39.51c7.7-6.5,17.27-10.11,26.59-10.11.8,0,1.61.03,2.41.08,5.38.37,12.99,2.15,18.74,8.57l24.88,27.82c4.28,4.78,95.05,106.25,102.54,114.63,2.26,2.53,3.03,5.35,3.06,7.96Z" fill="#fff"/><path d="m7.97,221.96c.84,1.16,1.75,2.28,2.72,3.34l-2.72-3.34Z" fill="#231815"/><path d="m459.93,226.62l-2.36-2.64-51.42-62.05v.04c-.2-.23-.4-.46-.6-.68L278.13,18.83C268.32,7.86,254.23,1.22,238.48.15c-18.07-1.21-36.74,5.05-51.16,17.22L18.42,159.82c-19.48,16.28-24.4,42.74-10.45,62.14l2.72,3.34,52.64,64.79-5.67,38.97c-1.92,13.2,1.55,25.77,9.79,35.56l52.92,63.5c9.02,11.88,22.98,18.45,38.8,18.46,0,0,155.92,0,155.92,0,28.29,0,53.53-21.12,57.45-48.09,0,0,13.66-93.8,13.66-93.8h30.84c20.74,0,39.87-12.09,48.74-30.81,7.78-16.42,5.54-34.53-5.85-47.26Zm-76.22-30.3c-3.22,6.79-10.98,13.64-21.05,13.64h-36.1c-12.09,0-22.47,8.7-24.16,20.25l-14.39,98.85c-1.05,7.2-5.73,13.75-12.03,17.96-4.5,3.01-9.84,4.83-15.26,4.83h-49.33l13.64-93.7c1.03-7.06-1.08-14.11-5.78-19.32-14.96-16.53-43.64-6.06-46.62,15.23,0,0-14.23,97.79-14.23,97.79h-53.61c-5.49,0-10.24-1.91-13.36-5.38-3.08-3.42-4.37-8.15-3.62-13.31,0,0,4.21-28.89,4.21-28.89,3.13-21.67,7.03-48.23,10.18-69.96.02-.11.03-.22.04-.33,1.39-9.53-4.45-19.01-13.37-22.38-2.69-1.08-5.61-1.64-8.62-1.64h-36.1c-16.21-.04-17.91-17.89-5.7-28L207.35,39.51c7.7-6.5,17.27-10.11,26.59-10.11.8,0,1.61.03,2.41.08,5.38.37,12.99,2.15,18.74,8.57l24.88,27.82c4.25,4.74,95.07,106.28,102.54,114.63,4.32,4.45,3.32,11.75,1.2,15.82Z" fill="#231815"/></g></g></g></svg>